<?xml version="1.0" standalone="no"?>
<!DOCTYPE svg PUBLIC "-//W3C//DTD SVG 20010904//EN"
 "http://www.w3.org/TR/2001/REC-SVG-20010904/DTD/svg10.dtd">
<svg version="1.0" xmlns="http://www.w3.org/2000/svg"
 width="1024.000000pt" height="1024.000000pt" viewBox="0 0 1024.000000 1024.000000"
 preserveAspectRatio="xMidYMid meet">
<metadata>
Created by potrace 1.11, written by Peter Selinger 2001-2013
</metadata>
<g transform="translate(0.000000,1024.000000) scale(0.100000,-0.100000)"
fill="#000000" stroke="none">
<path d="M5160 10083 c0 -4 -30 -8 -68 -7 -37 0 -85 -4 -107 -9 -22 -5 -49
-10 -59 -13 -74 -15 -256 -97 -256 -115 0 -5 -6 -9 -14 -9 -8 0 -21 -6 -28
-12 -7 -7 -38 -31 -68 -54 -62 -47 -200 -181 -200 -195 0 -5 -7 -9 -15 -9 -8
0 -15 -6 -15 -14 0 -7 -7 -20 -16 -27 -26 -22 -159 -204 -183 -251 -8 -16 -18
-28 -23 -28 -4 0 -8 -5 -8 -10 0 -6 -10 -27 -23 -48 -62 -99 -237 -445 -237
-468 0 -3 -11 -29 -23 -57 -13 -29 -34 -79 -47 -112 -12 -33 -26 -69 -31 -80
-5 -11 -16 -42 -25 -70 -9 -27 -21 -61 -27 -75 -5 -14 -12 -34 -14 -44 -2 -11
-8 -25 -14 -33 -6 -7 -9 -13 -6 -13 4 0 -1 -19 -9 -42 -17 -49 -98 -324 -113
-384 -5 -21 -19 -76 -30 -121 -11 -45 -22 -92 -25 -105 -2 -13 -9 -41 -14 -63
-6 -22 -13 -51 -16 -65 -3 -14 -8 -36 -11 -50 -3 -14 -8 -41 -11 -60 -9 -49
-12 -65 -15 -65 -1 0 -3 -13 -4 -30 -2 -16 -4 -30 -5 -30 -1 0 -4 -9 -5 -20
-4 -25 -13 -81 -21 -118 -3 -16 -7 -38 -9 -50 -2 -12 -6 -34 -9 -49 -6 -24 -3
-28 26 -36 18 -5 45 -5 61 -1 15 4 27 4 27 -1 0 -6 10 -6 25 0 15 6 26 6 30 0
4 -6 13 -7 23 -1 11 6 24 6 35 0 11 -7 17 -7 17 0 0 6 11 7 28 2 15 -4 39 -4
55 0 15 4 27 3 27 -2 0 -5 11 -4 25 1 15 6 26 6 30 0 4 -6 13 -7 23 -1 11 6
24 6 35 0 11 -7 17 -7 17 0 0 6 11 7 28 2 15 -4 39 -4 55 0 15 4 27 3 27 -2 0
-5 11 -4 25 1 15 6 26 6 30 0 4 -6 13 -7 23 -1 11 6 24 6 35 0 11 -7 17 -7 17
0 0 6 11 7 28 2 15 -4 39 -4 55 0 15 4 27 3 27 -2 0 -5 11 -4 25 1 15 6 26 6
30 0 4 -6 13 -7 23 -1 11 6 24 6 35 0 11 -7 17 -7 17 0 0 6 11 7 28 2 15 -4
39 -4 55 0 15 4 27 4 27 1 0 -8 109 -6 117 2 3 3 14 1 24 -5 11 -5 19 -6 19
-1 0 8 69 7 77 -2 3 -3 15 -1 27 4 13 4 29 4 39 -1 9 -6 17 -6 17 -1 0 8 69 7
77 -2 3 -3 15 -1 27 4 13 4 29 4 39 -1 9 -6 17 -6 17 -1 0 8 69 7 77 -2 3 -3
15 -1 27 4 13 4 29 4 39 -1 9 -6 17 -6 17 -2 0 10 103 8 119 -1 6 -4 11 -4 11
1 0 4 14 8 30 8 17 0 30 -3 30 -7 0 -4 10 -4 23 1 13 5 30 5 39 0 10 -6 19 -6
23 0 4 7 15 7 30 1 14 -5 25 -6 25 -2 0 4 11 7 25 7 14 0 25 -3 25 -7 0 -4 11
-3 25 2 15 6 26 6 30 0 4 -6 13 -7 23 -1 11 6 24 6 34 0 10 -6 19 -6 23 0 4 7
15 7 30 1 15 -6 25 -6 25 0 0 5 12 5 30 0 17 -5 30 -5 30 0 0 5 12 5 28 1 15
-4 39 -4 55 0 15 4 27 3 27 -2 0 -6 7 -6 18 0 11 6 24 6 34 0 10 -6 19 -6 23
0 4 7 15 7 30 1 15 -6 25 -6 25 0 0 5 12 5 28 1 15 -4 39 -4 55 0 15 4 27 3
27 -2 0 -6 7 -6 18 0 11 6 24 6 34 0 10 -6 19 -6 23 0 4 7 15 7 30 1 15 -6 25
-6 25 0 0 5 12 5 28 1 15 -4 39 -4 55 0 15 4 27 3 27 -1 0 -5 14 -5 30 0 17 5
30 5 30 1 0 -4 22 -5 50 -1 27 3 56 2 65 -2 8 -5 15 -5 15 -1 0 4 14 8 30 8
17 0 30 -3 30 -7 0 -4 10 -4 23 1 13 5 30 5 39 0 10 -6 19 -6 23 0 4 7 15 7
30 1 15 -6 25 -6 25 0 0 5 12 5 30 0 17 -5 32 -5 35 0 3 5 16 5 30 0 15 -6 25
-6 25 0 0 5 12 5 30 0 17 -5 30 -5 30 0 0 5 7 7 16 3 12 -4 14 0 10 23 -2 16
-5 29 -6 29 -1 0 -3 14 -6 30 -5 44 -12 89 -14 95 -2 3 -2 8 -2 11 0 3 -4 23
-9 45 -5 21 -12 59 -15 84 -3 25 -10 47 -15 48 -5 2 -7 8 -4 12 3 5 0 30 -6
57 -6 26 -12 57 -15 68 -2 11 -9 43 -16 70 -7 28 -11 54 -10 58 1 4 -2 16 -7
25 -5 9 -12 34 -15 56 -4 21 -8 41 -11 45 -2 4 -6 18 -9 32 -10 48 -14 65 -31
123 -9 32 -18 64 -20 70 -1 6 -4 18 -7 26 -3 8 -23 74 -44 145 -20 72 -41 135
-46 141 -5 7 -8 16 -7 20 1 5 -3 23 -10 39 -7 17 -14 37 -16 45 -2 8 -20 58
-40 110 -20 52 -40 106 -45 120 -4 14 -18 48 -29 75 -12 28 -27 63 -34 80 -17
43 -189 389 -196 395 -3 3 -15 21 -25 40 -43 79 -185 289 -216 320 -3 3 -26
31 -53 62 -65 78 -218 228 -232 228 -3 0 -28 18 -57 40 -29 22 -58 40 -65 40
-6 0 -13 4 -15 8 -4 11 -104 58 -171 81 -49 17 -116 31 -167 36 -9 0 -21 4
-28 9 -6 4 -12 4 -12 -1z"/>
<path d="M3605 9841 c-44 -14 -86 -30 -92 -34 -7 -5 -13 -6 -13 -3 0 3 -20 -3
-45 -14 -25 -11 -45 -18 -45 -16 0 2 -36 -11 -79 -29 -44 -19 -82 -31 -85 -28
-3 4 -6 1 -6 -5 0 -7 -3 -11 -7 -10 -5 1 -19 -3 -33 -9 -58 -25 -231 -104
-310 -143 -47 -23 -87 -41 -89 -40 -2 1 -7 -3 -10 -8 -3 -5 -35 -25 -69 -43
-35 -19 -71 -38 -81 -44 -9 -5 -39 -23 -66 -39 -28 -16 -115 -72 -194 -125
-79 -53 -151 -100 -159 -106 -9 -5 -22 -14 -29 -20 -26 -21 -39 -31 -78 -59
-22 -16 -44 -34 -50 -40 -5 -6 -28 -24 -50 -40 -22 -17 -42 -33 -45 -36 -3 -3
-34 -30 -70 -59 -128 -107 -363 -336 -485 -476 -39 -44 -74 -85 -80 -91 -5 -6
-23 -28 -40 -49 -16 -21 -39 -48 -50 -60 -11 -11 -24 -28 -30 -37 -9 -14 -134
-180 -152 -203 -5 -5 -23 -32 -40 -60 -18 -27 -36 -54 -40 -60 -22 -27 -113
-177 -113 -185 0 -6 -4 -10 -10 -10 -5 0 -10 -4 -10 -9 0 -4 -29 -59 -65 -120
-35 -61 -64 -112 -64 -114 1 -1 -24 -54 -56 -117 -48 -98 -115 -246 -115 -255
0 -1 9 -5 20 -8 11 -3 20 -2 20 2 0 7 109 5 117 -3 2 -2 18 0 34 4 17 5 31 5
35 -1 3 -6 10 -6 17 -1 7 5 23 6 37 2 14 -4 37 -3 53 1 15 4 27 4 27 -1 0 -6
10 -6 25 0 15 6 26 6 30 0 4 -6 13 -7 23 -1 11 6 24 6 35 0 11 -7 17 -7 17 0
0 6 11 7 28 2 15 -4 39 -4 54 0 16 4 28 3 28 -2 0 -5 11 -4 25 1 15 6 26 6 30
0 4 -6 13 -7 23 -1 11 6 24 6 35 0 11 -7 17 -7 17 0 0 6 11 7 28 2 15 -4 39
-4 55 0 15 4 27 3 27 -2 0 -5 11 -4 25 1 15 6 26 6 30 0 4 -6 13 -7 23 -1 11
6 24 6 35 0 11 -7 17 -7 17 0 0 6 11 7 28 2 15 -4 39 -4 55 0 15 4 27 3 27 -2
0 -5 11 -4 25 1 15 6 26 6 30 0 4 -6 13 -7 23 -1 11 6 24 6 35 0 11 -7 17 -7
17 0 0 6 11 7 28 2 15 -4 39 -4 55 0 15 4 27 4 27 1 0 -8 109 -6 117 2 3 3 14
1 24 -5 11 -5 19 -6 19 -1 0 8 69 7 77 -2 3 -3 15 -1 27 4 13 4 29 4 39 -1 9
-6 17 -6 17 -1 0 8 69 7 77 -2 3 -3 15 -1 27 4 13 4 29 4 39 -1 9 -6 17 -6 17
-1 0 8 69 7 77 -2 3 -3 15 -1 27 4 13 4 29 4 39 -1 9 -6 17 -6 17 -1 0 9 53 8
69 -3 6 -3 11 -2 11 2 0 10 41 10 57 0 7 -4 14 -3 18 2 3 6 12 8 19 5 18 -7
28 10 31 55 2 20 5 43 8 51 7 18 19 95 21 133 0 15 4 27 7 27 3 0 5 10 5 23
-1 12 0 27 3 32 6 11 6 11 16 75 4 24 8 47 10 50 2 3 6 21 9 40 6 38 13 72 21
108 3 12 7 32 10 45 2 12 14 64 26 115 11 52 22 101 24 110 2 9 4 17 5 17 1 0
3 7 5 15 2 12 30 122 50 200 2 8 20 69 41 135 20 66 37 127 39 135 2 8 13 41
24 73 11 31 17 57 14 57 -3 0 0 6 6 14 7 8 14 22 16 32 5 26 63 193 80 229 7
17 30 73 50 125 105 271 263 577 421 818 40 61 70 112 66 111 -4 -1 -43 -13
-87 -28z"/>
<path d="M6540 9864 c0 -2 19 -31 43 -64 23 -32 58 -85 77 -116 19 -32 45 -72
57 -91 12 -18 19 -33 15 -33 -4 0 -2 -4 3 -8 13 -9 59 -93 131 -242 97 -198
114 -233 114 -241 0 -4 13 -36 29 -71 16 -35 37 -85 46 -113 10 -27 22 -55 27
-61 4 -6 9 -19 11 -30 2 -10 7 -27 10 -37 4 -9 10 -25 14 -35 3 -9 7 -21 9
-27 2 -5 24 -71 50 -145 66 -192 139 -443 169 -580 2 -8 4 -15 5 -15 1 0 3 -7
5 -15 1 -8 13 -57 25 -108 12 -51 23 -99 24 -105 1 -7 8 -39 15 -72 8 -33 15
-67 16 -75 2 -8 4 -15 5 -15 2 0 12 -65 13 -82 0 -7 3 -13 6 -13 3 0 6 -10 7
-22 0 -13 3 -36 6 -53 3 -16 9 -48 13 -70 3 -22 9 -47 12 -55 3 -8 7 -31 9
-50 2 -19 5 -46 8 -60 20 -121 21 -124 42 -116 7 3 16 1 19 -4 3 -5 18 -5 34
0 15 4 34 4 41 0 7 -5 23 -5 34 0 12 4 31 4 44 -1 12 -5 22 -5 22 -1 0 4 14 7
30 7 17 0 30 -4 30 -8 0 -4 8 -3 18 2 11 6 24 6 34 0 10 -6 19 -6 23 0 4 7 15
7 30 1 15 -6 25 -6 25 0 0 5 12 5 28 1 15 -4 39 -4 55 0 15 4 27 3 27 -2 0 -6
7 -6 18 0 11 6 24 6 34 0 10 -6 19 -6 23 0 4 7 15 7 30 1 15 -6 25 -6 25 0 0
5 12 5 28 1 15 -4 39 -4 55 0 15 4 27 3 27 -2 0 -6 7 -6 18 0 10 6 24 6 32 1
8 -5 19 -6 24 -3 13 9 58 8 79 0 9 -3 19 -2 22 3 3 6 15 6 30 0 14 -5 25 -6
25 -2 0 4 11 7 25 7 14 0 25 -3 25 -7 0 -4 11 -3 25 2 15 6 26 6 30 0 4 -6 13
-7 23 -1 11 6 24 6 34 0 10 -6 19 -6 23 0 4 7 15 7 30 1 14 -5 25 -6 25 -2 0
4 11 7 25 7 14 0 25 -3 25 -7 0 -4 11 -3 25 2 15 6 26 6 30 0 4 -7 13 -7 24 0
10 5 21 6 25 3 7 -8 105 -7 113 1 3 3 14 1 24 -5 11 -5 19 -6 19 -1 0 8 69 7
77 -2 3 -3 15 -1 27 4 13 4 29 4 39 -1 9 -6 17 -6 17 -1 0 8 69 7 77 -2 3 -3
15 -1 27 4 13 4 29 4 39 -1 9 -6 17 -6 17 -1 0 8 69 7 77 -2 3 -3 15 -1 27 4
13 4 29 4 39 -1 9 -6 17 -6 17 -1 0 4 21 7 48 4 90 -7 99 -5 84 25 -21 40 -33
70 -36 85 -1 9 -8 23 -15 31 -7 9 -14 22 -15 29 -5 24 -132 270 -195 376 -17
29 -31 57 -31 62 0 6 -4 10 -10 10 -5 0 -10 7 -10 15 0 8 -4 15 -10 15 -5 0
-10 5 -10 11 0 6 -13 31 -30 56 -16 24 -30 47 -30 50 0 3 -12 22 -27 42 -16
20 -32 43 -38 52 -73 120 -303 411 -426 541 -20 21 -35 38 -33 38 2 0 -60 64
-139 143 -211 210 -457 417 -662 557 -27 18 -52 36 -55 39 -3 3 -17 12 -32 20
-16 8 -28 18 -28 23 0 4 -4 8 -9 8 -5 0 -59 32 -120 70 -62 39 -114 70 -117
70 -3 0 -18 8 -32 19 -59 41 -516 265 -554 271 -4 0 -31 11 -60 24 -96 42
-418 150 -418 140z"/>
<path d="M332 6393 c-6 -10 -13 -39 -17 -65 -4 -27 -10 -48 -14 -48 -4 0 -7
-8 -8 -17 -1 -33 -28 -168 -33 -168 -1 0 -3 -9 -4 -20 -2 -11 -7 -40 -12 -65
-4 -25 -9 -49 -9 -55 -1 -5 -5 -30 -9 -55 -12 -71 -16 -95 -21 -141 -3 -24 -8
-62 -11 -84 -36 -247 -40 -757 -8 -1042 4 -34 7 -61 19 -148 3 -27 7 -66 9
-86 2 -20 6 -41 9 -45 3 -5 8 -31 11 -59 3 -27 15 -93 27 -145 11 -52 24 -115
29 -140 5 -25 13 -60 19 -77 5 -18 7 -33 4 -33 -3 0 0 -7 7 -15 6 -8 9 -18 6
-24 -3 -5 8 -14 24 -20 18 -6 28 -6 25 -1 -4 6 3 6 19 0 14 -5 26 -6 26 -2 0
4 11 7 25 7 14 0 25 -4 25 -8 0 -4 9 -3 19 3 13 7 22 7 26 0 4 -6 12 -7 23 -1
9 5 26 5 39 0 14 -5 23 -5 23 1 0 5 12 5 30 0 18 -5 30 -5 30 0 0 6 9 6 23 1
12 -5 32 -5 45 0 13 5 22 5 22 -1 0 -6 9 -6 23 -1 12 5 32 5 45 0 13 -5 22 -5
22 1 0 5 12 5 30 0 18 -5 30 -5 30 0 0 6 9 6 23 1 12 -5 32 -5 45 0 13 5 22 5
22 -1 0 -6 9 -6 23 -1 12 5 32 5 45 0 12 -5 22 -5 22 1 0 5 12 5 29 0 15 -4
34 -4 42 1 7 4 19 4 25 -2 8 -7 14 -6 19 1 4 7 12 7 24 0 10 -5 21 -7 24 -4 9
9 67 11 67 2 0 -4 11 -3 25 2 15 6 26 6 30 0 4 -7 13 -6 25 0 12 6 21 7 25 0
4 -6 15 -6 30 0 17 6 25 6 25 -1 0 -6 5 -7 11 -4 16 10 69 12 69 3 0 -4 11 -3
25 2 15 6 26 6 30 0 4 -7 13 -6 25 0 12 6 21 7 25 0 4 -6 15 -6 30 0 17 6 25
6 25 -1 0 -6 5 -7 11 -4 16 10 69 12 69 3 0 -4 11 -3 25 2 15 6 26 6 30 0 4
-7 13 -6 25 0 12 6 21 7 25 0 4 -6 15 -6 30 0 17 6 25 6 25 -1 0 -6 5 -7 11
-4 16 10 69 12 69 3 0 -4 11 -3 25 2 15 6 26 6 30 0 4 -7 13 -6 25 0 12 6 21
7 25 0 4 -6 15 -6 30 0 17 6 25 6 25 -1 0 -6 5 -7 11 -4 16 10 69 12 69 3 0
-4 11 -3 25 2 15 6 26 6 30 0 4 -7 13 -6 25 0 13 7 21 7 25 0 4 -7 12 -7 25 0
13 7 21 7 25 0 4 -6 11 -7 17 -4 15 9 68 11 68 3 0 -4 15 -4 33 1 18 4 43 3
56 -2 l23 -8 -7 97 c-4 54 -9 125 -11 158 -2 33 -4 60 -5 60 -2 0 -5 34 -14
185 -14 241 -15 281 -19 483 -3 115 -7 211 -10 214 -2 3 -1 15 4 27 4 13 5 28
0 35 -4 7 -4 28 0 47 4 19 4 34 0 34 -5 0 -5 12 -1 28 5 15 4 37 0 50 -5 12
-5 22 -1 22 4 0 7 64 8 143 1 192 14 464 29 627 3 30 7 93 11 140 3 47 9 111
13 142 4 32 4 62 1 69 -8 12 -230 19 -230 7 0 -4 -11 -3 -24 2 -15 5 -27 5
-34 -2 -6 -6 -12 -6 -16 1 -5 7 -15 7 -32 1 -14 -6 -23 -7 -21 -2 3 4 -21 7
-54 7 -32 0 -59 -3 -59 -7 0 -4 -11 -3 -24 2 -15 5 -27 5 -34 -2 -6 -6 -12 -6
-16 1 -5 7 -15 7 -32 1 -14 -6 -23 -7 -21 -2 3 4 -21 7 -54 7 -32 0 -59 -3
-59 -7 0 -4 -11 -3 -24 2 -15 5 -27 5 -34 -2 -6 -6 -12 -6 -16 1 -5 7 -15 7
-32 1 -14 -6 -23 -7 -21 -2 3 4 -21 7 -54 7 -32 0 -59 -3 -59 -7 0 -4 -11 -3
-24 2 -15 5 -27 5 -34 -2 -6 -6 -12 -6 -16 1 -5 7 -15 7 -32 1 -14 -6 -23 -7
-21 -2 6 8 -115 7 -138 -1 -8 -4 -15 -2 -15 3 0 6 -9 6 -22 1 -13 -5 -33 -5
-45 0 -13 5 -25 4 -28 -1 -3 -6 -15 -6 -30 0 -15 6 -27 6 -30 0 -4 -6 -13 -7
-23 -1 -11 6 -24 6 -34 0 -10 -6 -19 -6 -23 0 -3 6 -15 7 -28 2 -12 -5 -32 -5
-44 0 -13 5 -25 4 -28 -1 -3 -6 -15 -6 -30 0 -15 6 -27 6 -30 0 -4 -6 -13 -7
-23 -1 -11 6 -24 6 -34 0 -10 -6 -19 -6 -23 0 -3 6 -15 7 -28 2 -12 -5 -32 -5
-44 0 -13 5 -25 4 -28 -1 -3 -6 -15 -6 -30 0 -15 6 -27 6 -30 0 -4 -6 -13 -7
-24 -1 -10 6 -23 6 -31 1 -8 -5 -19 -6 -24 -3 -15 10 -56 10 -56 0 0 -4 -8 -3
-18 2 -10 5 -24 6 -32 1 -8 -5 -21 -5 -30 0 -9 5 -23 4 -32 -1 -10 -6 -19 -6
-23 0 -4 7 -15 7 -30 1 -14 -5 -25 -6 -25 -2 0 9 -47 8 -57 -1 -3 -4 -12 -2
-19 4 -9 7 -15 5 -22 -8z"/>
<path d="M3269 6409 c-1 -2 -2 -17 -4 -34 -2 -16 -5 -52 -9 -80 -6 -48 -11
-108 -21 -245 -3 -36 -7 -99 -10 -140 -9 -114 -14 -253 -20 -488 -3 -118 -7
-218 -11 -223 -3 -5 -2 -9 3 -9 9 0 8 -83 -1 -106 -3 -8 -2 -14 2 -14 4 0 8
-98 9 -218 1 -216 7 -364 19 -537 4 -49 8 -108 9 -130 12 -178 29 -333 38
-342 8 -8 86 -9 81 -1 -3 4 6 4 20 -2 15 -5 26 -6 26 0 0 5 12 5 30 0 18 -5
30 -5 30 0 0 6 9 6 23 1 12 -5 32 -5 45 0 13 5 22 5 22 -1 0 -6 9 -6 23 -1 12
5 32 5 45 0 12 -5 22 -5 22 1 0 5 12 5 29 0 15 -4 34 -4 42 1 7 4 19 4 25 -2
8 -7 14 -6 19 1 4 7 12 7 24 0 10 -5 21 -7 24 -4 9 9 67 11 67 2 0 -4 11 -3
25 2 15 6 26 6 30 0 4 -7 13 -6 25 0 12 6 21 7 25 0 4 -6 15 -6 30 0 17 6 25
6 25 -1 0 -6 5 -7 11 -4 16 10 69 12 69 3 0 -4 11 -3 25 2 15 6 26 6 30 0 4
-7 13 -6 25 0 12 6 21 7 25 0 4 -6 15 -6 30 0 17 6 25 6 25 -1 0 -6 5 -7 11
-4 16 10 69 12 69 3 0 -4 11 -3 25 2 15 6 26 6 30 0 4 -7 13 -6 25 0 12 6 21
7 25 0 4 -6 15 -6 30 0 17 6 25 6 25 -1 0 -6 5 -7 11 -4 16 10 69 12 69 3 0
-4 11 -3 25 2 15 6 26 6 30 0 4 -7 13 -6 25 0 12 6 21 7 25 0 4 -6 15 -6 30 0
17 6 25 6 25 -1 0 -6 5 -7 11 -4 16 10 69 12 69 3 0 -4 11 -3 25 2 15 6 26 6
30 0 4 -7 13 -6 25 0 13 7 21 7 25 0 4 -7 12 -7 25 0 13 7 21 7 25 0 4 -6 11
-7 17 -4 14 9 68 11 68 3 0 -3 23 -3 50 1 28 4 53 3 56 -1 3 -5 16 -4 29 1 17
6 25 6 25 -1 0 -6 5 -7 11 -4 16 10 69 12 69 3 0 -4 11 -3 25 2 15 6 26 6 30
0 4 -7 13 -6 25 0 12 6 21 7 25 0 4 -6 15 -6 30 0 17 6 25 6 25 -1 0 -6 5 -7
11 -4 16 10 69 12 69 3 0 -4 11 -3 25 2 15 6 26 6 30 0 4 -7 13 -6 25 0 12 6
21 7 25 0 4 -6 15 -6 30 0 17 6 25 6 25 -1 0 -6 5 -7 11 -4 16 10 69 12 69 3
0 -4 11 -3 25 2 15 6 26 6 30 0 4 -7 13 -6 25 0 12 6 21 7 25 0 4 -6 15 -6 30
0 17 6 25 6 25 -1 0 -6 5 -7 11 -4 16 10 69 12 69 3 0 -4 11 -3 25 2 15 6 26
6 30 0 4 -7 13 -6 25 0 12 6 21 7 25 0 4 -6 15 -6 30 0 17 6 25 6 25 -1 0 -6
5 -7 11 -4 16 10 69 12 69 3 0 -4 11 -3 25 2 15 6 26 6 30 0 4 -7 13 -6 25 0
12 6 21 7 25 0 4 -6 15 -6 30 0 16 6 25 6 25 -1 0 -6 7 -6 20 1 14 8 20 8 20
0 0 -7 6 -8 18 -1 11 6 24 6 34 0 10 -6 19 -6 23 0 4 7 15 7 30 1 15 -6 25 -6
25 0 0 5 12 5 30 0 18 -5 30 -5 30 0 0 6 9 6 23 1 12 -5 32 -5 45 0 13 5 22 5
22 -1 0 -6 9 -6 23 -1 12 5 32 5 45 0 12 -5 22 -5 22 1 0 5 12 5 29 0 15 -4
34 -4 42 1 7 4 18 4 24 -1 6 -5 16 -6 22 -2 14 9 19 37 28 142 39 443 49 686
49 1150 0 339 -4 478 -19 740 -9 152 -31 432 -39 485 -2 11 -4 25 -5 31 -1 14
-41 26 -41 13 0 -5 -11 -4 -25 1 -15 6 -26 6 -30 0 -4 -6 -13 -7 -24 -1 -9 5
-23 6 -31 1 -7 -4 -24 -4 -36 0 -14 6 -26 5 -29 0 -4 -6 -13 -7 -23 -1 -11 6
-24 6 -34 0 -10 -6 -19 -6 -23 0 -3 6 -15 7 -28 2 -12 -5 -32 -5 -44 0 -13 5
-25 4 -28 -1 -3 -6 -15 -6 -30 0 -15 6 -27 6 -30 0 -4 -6 -13 -7 -23 -1 -11 6
-24 6 -34 0 -10 -6 -19 -6 -23 0 -4 7 -15 7 -31 1 -14 -6 -23 -7 -21 -2 3 4
-8 7 -24 7 -16 0 -29 -4 -29 -8 0 -4 -8 -3 -18 2 -11 6 -24 6 -34 0 -10 -6
-19 -6 -23 0 -4 7 -15 7 -31 1 -14 -6 -23 -7 -21 -2 3 4 -8 7 -24 7 -16 0 -29
-3 -29 -7 0 -4 -11 -3 -24 2 -15 5 -27 5 -34 -2 -6 -6 -12 -6 -16 1 -5 7 -15
7 -32 1 -14 -6 -23 -7 -21 -2 3 4 -21 7 -54 7 -32 0 -59 -3 -59 -7 0 -4 -11
-3 -24 2 -15 5 -27 5 -34 -2 -6 -6 -12 -6 -16 1 -5 7 -15 7 -32 1 -14 -6 -23
-7 -21 -2 3 4 -21 7 -54 7 -32 0 -59 -3 -59 -7 0 -4 -11 -3 -24 2 -15 5 -27 5
-34 -2 -6 -6 -12 -6 -16 1 -5 7 -15 7 -32 1 -14 -6 -23 -7 -21 -2 3 4 -21 7
-54 7 -32 0 -59 -3 -59 -7 0 -4 -11 -3 -24 2 -15 5 -27 5 -34 -2 -6 -6 -12 -6
-16 1 -5 7 -15 7 -32 1 -14 -6 -23 -7 -21 -2 3 4 -21 7 -54 7 -32 0 -59 -3
-59 -7 0 -4 -7 -5 -15 -2 -22 9 -225 10 -225 2 0 -4 -11 -3 -24 2 -15 5 -27 5
-34 -2 -6 -6 -12 -6 -16 1 -5 7 -15 7 -32 1 -14 -6 -23 -7 -21 -2 3 4 -21 7
-54 7 -32 0 -59 -3 -59 -7 0 -4 -11 -3 -24 2 -15 5 -27 5 -34 -2 -6 -6 -12 -6
-16 1 -5 7 -15 7 -32 1 -14 -6 -23 -7 -21 -2 3 4 -21 7 -54 7 -32 0 -59 -3
-59 -7 0 -4 -11 -3 -24 2 -15 5 -27 5 -34 -2 -6 -6 -12 -6 -16 1 -5 7 -15 7
-32 1 -14 -6 -23 -7 -21 -2 3 4 -21 7 -54 7 -32 0 -59 -3 -59 -7 0 -4 -11 -3
-24 2 -15 5 -27 5 -34 -2 -6 -6 -12 -6 -16 1 -5 7 -15 7 -32 1 -14 -6 -23 -7
-21 -2 6 8 -115 7 -138 -1 -8 -4 -15 -2 -15 3 0 6 -9 6 -22 1 -13 -5 -33 -5
-45 0 -13 5 -25 4 -28 -1 -3 -6 -15 -6 -30 0 -15 6 -27 6 -30 0 -4 -6 -13 -7
-23 -1 -11 6 -24 6 -34 0 -10 -6 -19 -6 -23 0 -3 6 -15 7 -28 2 -12 -5 -32 -5
-44 0 -13 5 -25 4 -28 -1 -3 -6 -15 -6 -30 0 -15 6 -27 6 -30 0 -4 -6 -13 -7
-24 -1 -10 6 -23 6 -31 1 -8 -5 -19 -6 -24 -3 -15 10 -56 10 -56 0 0 -4 -9 -3
-19 3 -13 6 -22 7 -26 0 -3 -5 -15 -6 -29 0 -12 4 -29 4 -36 0 -9 -5 -20 -4
-27 2 -7 6 -14 9 -14 7z"/>
<path d="M7619 6391 c-2 -21 -3 -8 17 -231 23 -266 32 -435 38 -733 3 -114 8
-211 11 -216 3 -6 1 -12 -4 -16 -7 -3 -7 -15 -1 -29 5 -13 7 -26 4 -28 -3 -4
-6 -100 -4 -168 2 -71 -14 -474 -25 -625 -3 -38 -7 -104 -10 -145 -3 -41 -7
-93 -10 -115 -2 -22 -7 -80 -10 -130 -4 -49 -8 -94 -8 -99 -1 -4 6 -10 16 -12
9 -2 25 -6 35 -8 9 -2 25 1 35 6 11 6 17 5 17 -2 0 -8 6 -8 20 0 14 8 20 8 20
0 0 -8 6 -8 20 0 14 8 20 8 20 0 0 -8 6 -8 20 0 14 8 20 8 20 0 0 -8 6 -8 20
0 14 8 20 8 20 0 0 -8 6 -8 20 0 14 8 20 8 20 0 0 -8 6 -8 20 0 14 8 20 8 20
0 0 -8 6 -8 20 0 14 8 20 8 20 0 0 -8 6 -8 20 0 14 8 20 8 20 0 0 -8 6 -8 20
0 14 8 20 8 20 0 0 -8 6 -8 20 0 14 8 20 8 20 0 0 -8 6 -8 20 0 14 8 20 8 20
0 0 -8 6 -8 20 0 14 8 20 8 20 0 0 -8 6 -8 20 0 14 8 20 8 20 0 0 -8 6 -8 20
0 14 8 20 8 20 0 0 -8 6 -8 20 0 14 8 20 8 20 0 0 -8 6 -8 20 0 14 8 20 8 20
0 0 -8 6 -8 20 0 14 8 20 8 20 0 0 -8 6 -8 20 0 14 8 20 8 20 0 0 -8 6 -8 20
0 14 8 20 8 20 0 0 -8 6 -8 20 0 14 8 20 8 20 0 0 -8 6 -8 20 0 14 8 20 8 20
0 0 -8 6 -8 20 0 14 8 20 8 20 0 0 -8 6 -8 20 0 14 8 20 8 20 0 0 -8 6 -8 20
0 14 8 20 8 20 0 0 -8 6 -8 20 0 14 8 20 8 20 0 0 -8 6 -8 20 0 14 8 20 8 20
0 0 -8 6 -8 20 0 14 8 20 8 20 0 0 -8 6 -8 20 0 14 8 20 8 20 0 0 -8 6 -8 20
0 14 8 20 8 20 0 0 -8 6 -8 20 0 14 8 20 8 20 0 0 -6 5 -8 11 -5 15 10 79 12
79 3 0 -3 14 -3 30 2 19 5 30 5 30 -1 0 -6 6 -6 18 0 11 6 24 6 35 0 11 -7 17
-7 17 0 0 7 8 7 25 1 16 -6 25 -6 25 0 0 6 9 6 25 0 14 -5 25 -6 25 -2 0 4 16
7 35 7 19 0 35 -4 35 -8 0 -4 8 -3 18 2 11 6 24 6 35 0 11 -7 17 -7 17 0 0 7
8 7 25 1 16 -6 25 -6 25 0 0 6 9 6 25 0 14 -5 25 -6 25 -2 0 4 16 7 35 7 19 0
35 -4 35 -8 0 -4 8 -3 18 2 11 6 24 6 35 0 11 -7 17 -7 17 0 0 7 8 7 25 1 16
-6 25 -6 25 0 0 6 9 6 25 0 14 -5 25 -6 25 -2 0 9 53 7 69 -2 5 -4 12 -2 16 3
3 6 15 7 29 1 12 -4 29 -5 36 0 7 4 19 6 27 3 7 -3 14 2 14 11 2 17 5 33 9 41
3 6 2 4 15 60 10 47 12 54 15 58 1 1 3 11 5 22 5 29 15 77 20 95 2 8 7 31 10
50 3 19 8 46 10 60 11 52 15 75 20 115 4 22 8 54 11 70 7 42 12 81 20 150 3
33 8 71 10 85 24 151 24 727 0 920 -4 30 -10 85 -21 180 -1 14 -5 39 -8 55 -3
17 -9 53 -12 80 -3 28 -10 68 -15 90 -5 22 -12 56 -15 75 -3 19 -10 52 -16 73
-5 20 -7 42 -4 47 3 6 1 10 -6 10 -7 0 -9 10 -7 25 3 14 2 28 -2 30 -7 4 -22
68 -22 92 0 5 -4 14 -10 21 -6 6 -7 12 -3 12 4 0 2 6 -4 14 -13 15 -54 29 -45
15 3 -5 -5 -5 -19 0 -16 6 -28 6 -35 -1 -6 -6 -12 -6 -16 1 -4 7 -15 7 -31 1
-15 -6 -27 -6 -30 0 -3 6 -15 6 -30 0 -14 -5 -25 -6 -25 -2 0 4 -13 7 -29 7
-16 0 -27 -3 -24 -7 2 -5 -7 -4 -20 1 -16 6 -28 6 -35 -1 -6 -6 -12 -6 -16 1
-4 7 -15 7 -31 1 -15 -6 -27 -6 -30 0 -3 6 -15 6 -30 0 -14 -5 -25 -6 -25 -2
0 4 -13 7 -29 7 -16 0 -27 -3 -24 -7 2 -5 -7 -4 -20 1 -16 6 -28 6 -35 -1 -6
-6 -12 -6 -16 1 -4 7 -15 7 -31 1 -15 -6 -27 -6 -30 0 -3 6 -15 6 -30 0 -14
-5 -25 -6 -25 -2 0 4 -13 7 -29 7 -16 0 -27 -3 -24 -7 2 -5 -7 -4 -20 1 -16 6
-28 6 -35 -1 -6 -6 -12 -6 -16 1 -4 7 -15 7 -31 1 -13 -5 -26 -6 -29 -2 -5 8
-85 6 -93 -2 -3 -3 -15 -1 -27 4 -13 4 -29 4 -39 -1 -9 -6 -17 -6 -17 -1 0 9
-53 8 -69 -3 -6 -3 -11 -3 -11 2 0 4 -11 8 -25 8 -14 0 -25 -4 -25 -8 0 -4 -8
-3 -18 2 -13 7 -22 7 -29 0 -8 -8 -13 -8 -17 0 -4 6 -15 7 -29 2 -12 -5 -31
-5 -42 -1 -11 4 -28 3 -37 -2 -10 -5 -18 -5 -18 0 0 9 -53 8 -69 -3 -6 -3 -11
-3 -11 2 0 4 -11 8 -25 8 -14 0 -25 -4 -25 -8 0 -4 -8 -3 -18 2 -13 7 -22 7
-29 0 -8 -8 -13 -8 -17 0 -4 6 -15 7 -29 2 -12 -5 -31 -5 -42 -1 -11 4 -28 3
-37 -2 -10 -5 -18 -5 -18 0 0 9 -53 8 -69 -3 -6 -3 -11 -3 -11 2 0 4 -11 8
-25 8 -14 0 -25 -4 -25 -8 0 -4 -8 -3 -18 2 -13 7 -22 7 -29 0 -8 -8 -13 -8
-17 0 -4 6 -15 7 -29 2 -12 -5 -31 -5 -42 -1 -11 4 -28 3 -37 -2 -10 -5 -18
-5 -18 0 0 9 -53 8 -69 -3 -6 -3 -11 -3 -11 2 0 4 -11 8 -25 8 -14 0 -25 -4
-25 -8 0 -4 -9 -3 -19 3 -11 5 -22 6 -25 1 -3 -4 -24 -5 -46 -1 -33 6 -40 4
-41 -9z"/>
<path d="M574 3200 c-20 -5 -31 -30 -14 -30 6 0 9 -3 8 -7 -2 -10 7 -30 50
-123 20 -41 36 -77 37 -80 1 -6 45 -92 98 -190 21 -41 76 -135 121 -208 44
-74 85 -142 91 -153 5 -10 13 -19 17 -19 5 0 8 -6 8 -13 0 -8 9 -22 20 -32 11
-10 20 -23 20 -28 0 -6 7 -17 15 -26 8 -9 49 -63 91 -121 42 -58 83 -111 92
-117 9 -7 13 -13 9 -13 -4 0 11 -19 33 -42 22 -24 40 -46 40 -50 0 -3 15 -22
33 -41 17 -19 57 -63 87 -97 107 -123 329 -340 460 -450 29 -25 69 -59 89 -75
20 -17 56 -46 81 -65 25 -19 50 -39 56 -45 6 -5 22 -17 34 -25 12 -8 41 -30
64 -47 22 -18 46 -33 51 -33 6 0 17 -9 25 -20 8 -11 18 -20 22 -20 3 0 54 -31
112 -70 58 -38 109 -70 113 -70 3 0 14 -6 22 -14 16 -13 76 -48 156 -90 22
-12 42 -23 45 -26 11 -11 328 -165 360 -175 3 -1 31 -13 64 -28 32 -15 62 -27
67 -27 5 0 17 -4 27 -10 14 -8 57 -27 82 -35 7 -2 36 -13 96 -37 29 -11 60
-21 70 -23 11 -2 19 -4 19 -5 0 -1 7 -3 15 -5 8 -2 41 -12 72 -23 32 -10 60
-17 62 -15 3 3 -17 35 -43 71 -121 171 -270 448 -390 727 -87 202 -86 199
-103 250 -7 22 -15 42 -18 45 -5 5 -47 121 -54 150 -2 8 -11 35 -20 60 -9 25
-19 56 -22 69 -3 14 -8 29 -12 35 -3 6 -7 16 -7 21 -1 6 -4 17 -7 25 -10 28
-29 89 -33 107 -2 10 -18 64 -34 121 -43 145 -123 472 -125 505 0 15 -4 27 -8
27 -4 0 -6 8 -6 18 0 9 -3 31 -7 47 -3 17 -8 37 -9 45 -1 8 -6 29 -9 45 -4 17
-9 44 -12 60 -3 17 -7 41 -10 55 -5 26 -9 46 -25 140 -13 79 -23 134 -25 143
-2 4 -3 19 -4 33 -1 19 -5 25 -16 20 -8 -3 -15 -2 -15 2 0 4 -11 7 -25 7 -14
0 -25 -4 -25 -8 0 -4 -9 -3 -19 3 -14 7 -22 7 -26 0 -4 -7 -11 -7 -18 -2 -7 5
-21 6 -32 2 -11 -4 -30 -4 -42 1 -13 5 -25 4 -28 -2 -4 -5 -12 -6 -18 -2 -16
10 -48 10 -69 0 -10 -4 -18 -4 -18 0 0 4 -11 8 -25 8 -14 0 -25 -4 -25 -8 0
-4 -9 -3 -19 3 -14 7 -22 7 -26 0 -4 -7 -11 -7 -18 -2 -7 5 -21 6 -32 2 -11
-4 -30 -4 -42 1 -13 5 -25 4 -28 -2 -4 -5 -12 -6 -18 -2 -16 10 -48 10 -69 0
-10 -4 -18 -4 -18 0 0 4 -11 8 -25 8 -14 0 -25 -4 -25 -8 0 -4 -9 -3 -19 3
-13 6 -22 7 -26 0 -3 -5 -11 -7 -18 -5 -22 8 -125 11 -121 3 3 -4 -5 -4 -18 1
-15 5 -31 5 -41 0 -11 -7 -17 -6 -17 0 0 7 -8 7 -25 1 -14 -5 -25 -6 -25 -2 0
4 -13 7 -30 7 -16 0 -30 -3 -30 -7 0 -4 -11 -3 -25 2 -16 6 -25 6 -25 0 0 -6
-9 -6 -23 -1 -14 5 -30 5 -40 0 -11 -7 -17 -6 -17 0 0 7 -8 7 -25 1 -14 -5
-25 -6 -25 -2 0 4 -13 7 -30 7 -16 0 -30 -3 -30 -7 0 -4 -11 -3 -25 2 -16 6
-25 6 -25 0 0 -6 -9 -6 -23 -1 -14 5 -30 5 -40 0 -11 -7 -17 -6 -17 0 0 7 -8
7 -25 1 -14 -5 -25 -6 -25 -2 0 4 -13 7 -30 7 -16 0 -30 -3 -30 -7 0 -4 -11
-3 -25 2 -16 6 -25 6 -25 0 0 -6 -9 -6 -23 -1 -14 5 -30 5 -40 0 -11 -7 -17
-6 -17 0 0 7 -8 7 -25 1 -14 -5 -25 -6 -25 -2 0 4 -13 7 -30 7 -16 0 -30 -3
-30 -7 0 -4 -11 -3 -25 2 -17 6 -25 6 -25 -1 0 -6 -4 -7 -10 -4 -15 9 -80 12
-80 3 0 -4 -11 -3 -25 2 -17 6 -25 6 -25 -1 0 -6 -5 -7 -11 -4 -13 9 -100 12
-125 5z"/>
<path d="M3359 3205 c-5 -19 -4 -32 4 -49 7 -14 6 -16 -4 -11 -7 5 -10 4 -5
-3 3 -6 15 -60 26 -119 30 -163 35 -186 45 -233 3 -14 7 -34 9 -45 17 -81 39
-183 43 -195 2 -8 5 -17 5 -20 1 -3 5 -18 9 -35 10 -41 40 -156 44 -175 29
-118 161 -536 202 -640 4 -8 7 -17 7 -20 4 -17 71 -177 79 -187 5 -7 7 -13 4
-13 -3 0 7 -26 22 -57 15 -32 43 -92 61 -133 19 -41 40 -82 48 -92 7 -9 14
-22 16 -30 1 -7 4 -17 8 -23 3 -5 21 -37 39 -70 18 -33 44 -78 58 -100 14 -22
31 -52 38 -68 7 -15 17 -27 23 -27 5 0 10 -5 10 -11 0 -11 74 -122 98 -147 7
-8 25 -30 40 -50 52 -71 186 -211 236 -247 15 -11 37 -28 49 -39 60 -51 233
-150 284 -161 10 -2 45 -11 77 -20 33 -9 84 -18 115 -20 31 -2 56 -4 56 -5 0
-1 8 -3 18 -5 9 -2 17 0 17 3 0 4 17 7 38 8 160 3 409 113 527 233 12 12 24
21 28 21 12 0 237 239 237 252 0 7 20 34 46 62 17 19 128 188 149 228 11 21
23 38 27 38 5 0 8 9 8 20 0 11 5 20 10 20 6 0 10 6 10 14 0 7 7 19 15 26 8 6
14 15 13 18 -1 4 21 52 49 107 28 55 65 134 83 175 18 41 41 94 51 117 11 23
19 49 19 57 0 9 5 16 10 16 6 0 10 6 10 13 0 7 11 42 26 78 14 35 26 72 27 82
1 9 4 17 7 17 4 0 7 6 8 13 0 6 15 53 32 102 73 211 190 637 206 746 2 14 8
38 13 52 6 15 8 27 5 27 -4 0 -1 6 5 13 6 8 9 16 6 18 -2 3 1 25 6 49 6 25 13
56 15 70 3 14 7 36 10 50 3 14 7 36 9 50 2 14 4 25 5 25 3 0 15 69 25 145 2
14 4 25 5 25 1 0 3 11 4 23 3 28 -29 45 -56 30 -12 -5 -18 -5 -18 1 0 7 -9 7
-26 1 -14 -6 -23 -7 -21 -2 6 8 -50 8 -59 -1 -4 -3 -15 -2 -25 3 -12 7 -20 7
-24 0 -4 -6 -12 -7 -23 -1 -9 5 -26 5 -39 0 -14 -5 -23 -5 -23 1 0 6 -10 6
-26 0 -14 -6 -23 -7 -21 -2 6 8 -45 8 -59 -1 -6 -3 -16 -2 -23 2 -7 5 -28 5
-47 1 -18 -4 -35 -5 -38 -2 -9 8 -115 8 -109 0 2 -5 -6 -4 -19 1 -14 5 -31 5
-40 0 -11 -6 -19 -5 -23 1 -4 7 -12 7 -24 0 -10 -5 -21 -7 -25 -3 -8 9 -115 9
-109 1 2 -5 -6 -4 -19 1 -14 5 -31 5 -40 0 -11 -6 -19 -5 -23 1 -4 7 -12 7
-25 0 -12 -6 -21 -7 -25 0 -4 6 -15 6 -30 0 -16 -6 -25 -6 -25 0 0 6 -9 6 -25
0 -16 -6 -25 -6 -25 0 0 6 -10 6 -26 0 -14 -6 -23 -7 -21 -2 6 8 -50 8 -59 -1
-4 -3 -15 -2 -25 3 -12 7 -20 7 -24 0 -4 -6 -12 -7 -23 -1 -9 5 -26 5 -39 0
-14 -5 -23 -5 -23 1 0 6 -10 6 -26 0 -14 -6 -23 -7 -21 -2 6 8 -50 8 -59 -1
-4 -3 -15 -2 -25 3 -12 7 -20 7 -24 0 -4 -6 -12 -7 -23 -1 -9 5 -26 5 -39 0
-14 -5 -23 -5 -23 1 0 6 -10 6 -26 0 -14 -6 -23 -7 -21 -2 6 8 -45 8 -59 -1
-6 -3 -16 -2 -23 2 -12 8 -70 5 -79 -3 -2 -3 -15 -1 -28 4 -14 6 -26 6 -29 -1
-4 -5 -12 -6 -18 -2 -16 10 -48 10 -69 0 -10 -4 -18 -4 -18 0 0 4 -11 8 -25 8
-14 0 -25 -4 -25 -8 0 -4 -9 -3 -19 3 -14 7 -22 7 -26 0 -4 -7 -11 -7 -18 -2
-7 5 -21 6 -32 2 -11 -4 -30 -4 -42 1 -13 5 -25 4 -28 -2 -4 -5 -12 -6 -18 -2
-16 10 -48 10 -69 0 -10 -4 -18 -4 -18 0 0 4 -11 8 -25 8 -14 0 -25 -4 -25 -8
0 -4 -9 -3 -19 3 -13 6 -22 7 -26 0 -3 -5 -11 -7 -18 -5 -22 8 -125 11 -121 3
3 -4 -5 -4 -18 1 -15 5 -31 5 -41 0 -11 -7 -17 -6 -17 0 0 7 -8 7 -25 1 -14
-5 -25 -6 -25 -2 0 4 -13 7 -30 7 -16 0 -30 -3 -30 -7 0 -4 -11 -3 -25 2 -16
6 -25 6 -25 0 0 -6 -9 -6 -23 -1 -14 5 -30 5 -40 0 -11 -7 -17 -6 -17 0 0 7
-8 7 -25 1 -14 -5 -25 -6 -25 -2 0 4 -13 7 -30 7 -16 0 -30 -3 -30 -7 0 -4
-11 -3 -25 2 -16 6 -25 6 -25 0 0 -6 -9 -6 -23 -1 -14 5 -30 5 -40 0 -11 -7
-17 -6 -17 0 0 7 -8 7 -25 1 -14 -5 -25 -6 -25 -2 0 4 -13 7 -30 7 -16 0 -30
-3 -30 -7 0 -4 -11 -3 -25 2 -16 6 -25 6 -25 0 0 -6 -9 -6 -23 -1 -14 5 -30 5
-40 0 -11 -7 -17 -6 -17 0 0 7 -8 7 -25 1 -14 -5 -25 -6 -25 -2 0 4 -13 7 -30
7 -16 0 -30 -3 -30 -7 0 -4 -11 -3 -25 2 -16 6 -25 6 -25 0 0 -6 -9 -6 -25 0
-14 5 -26 7 -26 5z"/>
<path d="M7549 3198 c-12 -5 -20 -18 -21 -35 -2 -31 -5 -55 -8 -63 -2 -5 -7
-32 -14 -85 -2 -16 -7 -40 -9 -51 -3 -12 -8 -37 -11 -55 -3 -19 -10 -59 -16
-89 -6 -30 -13 -65 -16 -77 -7 -38 -15 -77 -20 -103 -3 -14 -6 -33 -7 -42 -1
-10 -5 -18 -10 -18 -4 0 -6 -4 -3 -8 3 -5 -2 -37 -10 -73 -9 -35 -18 -75 -20
-89 -3 -14 -10 -41 -16 -60 -6 -19 -13 -42 -14 -50 -9 -54 -17 -87 -25 -102
-5 -10 -8 -18 -5 -18 2 0 -3 -21 -11 -47 -8 -27 -21 -73 -29 -103 -8 -30 -31
-107 -51 -170 -20 -63 -38 -119 -39 -125 -6 -29 -68 -202 -77 -212 -5 -7 -7
-13 -4 -13 4 0 -2 -20 -13 -45 -11 -25 -19 -46 -19 -48 1 -5 -59 -154 -72
-179 -5 -10 -9 -24 -9 -32 0 -7 -7 -19 -15 -26 -8 -7 -15 -18 -15 -26 0 -7
-29 -74 -65 -149 -36 -75 -65 -140 -65 -145 0 -5 -3 -10 -8 -12 -4 -2 -25 -37
-46 -78 -21 -41 -44 -82 -51 -90 -8 -8 -15 -19 -16 -25 -2 -10 -17 -35 -85
-143 -19 -28 -34 -54 -34 -57 0 -3 -9 -15 -21 -28 -29 -31 -43 -58 -27 -53 7
3 38 12 68 21 30 9 62 19 70 22 8 3 21 7 28 9 8 1 21 6 30 10 9 4 19 8 22 9 3
1 12 4 20 8 8 3 49 18 90 32 41 15 100 39 130 52 30 14 60 26 65 28 15 3 98
41 190 86 44 21 86 39 93 39 7 0 12 4 12 8 0 5 20 17 45 28 25 10 45 21 45 25
0 7 39 22 53 20 4 -1 7 3 7 9 0 5 6 10 14 10 7 0 19 7 26 15 7 8 16 13 20 10
4 -3 13 2 20 10 7 8 19 15 26 15 8 0 14 3 14 8 0 4 15 14 33 22 17 7 41 22 51
32 11 10 24 18 29 18 5 0 21 9 35 20 15 12 65 46 112 77 78 51 218 150 230
163 3 3 30 24 62 48 31 24 67 53 80 65 14 12 49 42 79 67 138 114 381 357 512
510 54 63 106 124 116 135 36 39 231 304 231 313 0 6 4 12 8 14 30 12 326 521
382 658 5 14 14 32 19 40 13 23 58 122 65 146 5 16 2 23 -14 27 -11 3 -23 1
-26 -4 -3 -5 -13 -5 -24 1 -11 6 -28 7 -42 1 -13 -5 -33 -5 -45 0 -13 5 -25 4
-28 -2 -4 -5 -12 -6 -18 -2 -16 10 -48 10 -69 0 -10 -4 -18 -4 -18 0 0 4 -11
8 -25 8 -14 0 -25 -4 -25 -8 0 -4 -9 -3 -19 3 -14 7 -22 7 -26 0 -4 -7 -11 -7
-18 -2 -7 5 -21 6 -32 2 -11 -4 -30 -4 -42 1 -13 5 -25 4 -28 -2 -4 -5 -12 -6
-18 -2 -16 10 -48 10 -69 0 -10 -4 -18 -4 -18 0 0 4 -11 8 -25 8 -14 0 -25 -4
-25 -8 0 -4 -9 -3 -19 3 -11 5 -22 6 -25 1 -3 -4 -24 -5 -46 -1 -22 4 -40 4
-40 -1 0 -5 -6 -6 -13 -3 -23 9 -98 10 -103 2 -3 -5 -14 -4 -24 2 -13 7 -21 7
-25 0 -4 -6 -12 -7 -23 -1 -9 5 -26 5 -39 0 -14 -5 -23 -5 -23 1 0 6 -10 6
-26 0 -14 -6 -23 -7 -21 -2 6 8 -50 8 -59 -1 -4 -3 -15 -2 -25 3 -12 7 -20 7
-24 0 -4 -6 -12 -7 -23 -1 -9 5 -26 5 -39 0 -14 -5 -23 -5 -23 1 0 6 -10 6
-26 0 -14 -6 -23 -7 -21 -2 6 8 -50 8 -59 -1 -4 -3 -15 -2 -25 3 -11 7 -20 7
-24 0 -3 -5 -15 -6 -28 -1 -13 5 -30 5 -39 0 -11 -6 -19 -5 -23 1 -4 7 -12 7
-24 0 -10 -5 -21 -7 -25 -3 -8 9 -115 9 -109 1 2 -5 -6 -4 -19 1 -14 5 -31 5
-40 0 -11 -6 -19 -5 -23 1 -4 7 -12 7 -25 0 -10 -6 -21 -7 -23 -3 -6 9 -59 9
-73 0 -6 -3 -16 -2 -24 3 -9 5 -19 5 -26 -1 -7 -6 -15 -6 -18 -1 -3 5 -26 6
-51 2 -24 -4 -47 -5 -50 -2 -8 8 -64 8 -86 0z"/>
</g>
</svg>
